<svg xmlns="http://www.w3.org/2000/svg" width="123.565" height="113.335" viewBox="0 0 123.565 113.335"><g transform="translate(-4901.325 1728.217)"><path d="M-371.218,108.409c-12.176,11.234-27,25.018-45.132,41.928L-433,132.482c3.523.342,24.715-17.432,46.887-37.749C-423.109,60.987-427.373,59.165-433,59.711L-411.825,37l.293.274c-.225,3.395,18.675,23.006,40.314,43.56,21.64-20.554,40.539-40.165,40.314-43.56l.292-.274,21.176,22.709c-5.628-.546-9.892,1.276-46.886,35.022,22.171,20.318,43.363,38.091,46.886,37.749l-16.651,17.855C-344.221,133.426-359.043,119.643-371.218,108.409Z" transform="translate(5334.326 -1765.219)" fill="#fff"/></g></svg>