<svg xmlns="http://www.w3.org/2000/svg" width="454.558" height="624.768" viewBox="0 0 454.558 624.768"><path d="M118.7,623.766a364.631,364.631,0,0,1-110.7-17.1C2.658,597.916,0,587.747,0,576.363c0-40.231,34.744-78.59,88.27-108.529q-64.795-7.017-64.795-50.522c0-34.617,46.953-73.912,115.5-104.786C70.429,291.006,19.72,240.485,19.72,165.637,16.9,68.334,123.015-1.835,209.407.036H378.556a366.913,366.913,0,0,1,25.219,27.757L364.349,48.687c32.866,25.261,49.769,58.942,49.769,101.044,0,111.336-107.99,172.149-208.468,172.149-10.329,0-17.842,0-22.537-.935-19.72.935-38.5,15.9-38.5,28.067,0,14.034,15.025,16.841,44.135,16.841H371.861c52.586,0,81.7,10.292,81.7,43.973,0,.09,0,.182,0,.273C396.084,536.158,268.97,623.766,121.386,623.766ZM88.27,521.162c0,25.261,24.415,42.1,81.7,42.1,88.27,1.871,199.077-53.329,196.26-82.332,0-10.291-6.574-11.227-28.172-11.227h-218.8C98.6,484.674,88.27,501.515,88.27,521.162Zm63.855-386.4c0,86.075,41.317,159.987,83.575,159.987,30.049,0,47.891-46.779,47.891-117.885,0-85.139-42.257-150.63-81.7-150.63C174.662,26.233,152.125,64.592,152.125,134.762Z" transform="translate(0.5 0.502)" fill="#fff" stroke="rgba(0,0,0,0)" stroke-miterlimit="10" stroke-width="1"/></svg>