<svg xmlns="http://www.w3.org/2000/svg" xmlns:xlink="http://www.w3.org/1999/xlink" width="615" height="570" viewBox="0 0 615 570"><defs><clipPath id="a"><rect width="615" height="570" transform="translate(-41 -54)" fill="#fff"/></clipPath></defs><g transform="translate(41 54)" clip-path="url(#a)"><path d="M198.677,0C308.4,0,397.354,88.951,397.354,198.677S308.4,397.354,198.677,397.354,0,308.4,0,198.677,88.951,0,198.677,0Z" transform="translate(67.823 53.558)" fill="#181c27"/><path d="M399.113,395.973a10.563,10.563,0,1,0-3.866-14.428A10.565,10.565,0,0,0,399.113,395.973Z" fill="#fff"/><path d="M25.837,195.46C8.409,215.77,2.27,239.845,8.543,263.242c5.035,18.8,16.684,33.33,33.335,42.944,20.893,12.062,49.663,16.372,83.078,11.638C111.5,363.465,99.08,442.991,133.679,475.469l-5.9,10.219a10.563,10.563,0,0,0,18.3,10.563l5.9-10.22c45.518,13.755,108.245-36.954,140.886-71.268,12.612,31.308,30.725,54.067,51.621,66.131,16.646,9.606,35.059,12.438,53.849,7.4,23.408-6.266,41.187-23.625,50.059-48.87,9.035-25.7,8.6-58.693-1.241-95.421-13.014-48.567-41.54-101.993-70.444-133.369a73.976,73.976,0,0,0,13.91-106.745A73.667,73.667,0,0,1,473.809,97.6,10.562,10.562,0,0,0,484.371,79.3a94.7,94.7,0,0,0-109.49,10.213c-1.469-1-2.966-1.96-4.524-2.86s-3.137-1.712-4.731-2.484A94.713,94.713,0,0,0,319.718-15.76a10.564,10.564,0,0,0-14.428,3.866,10.564,10.564,0,0,0,3.866,14.429,73.667,73.667,0,0,1,36.154,75.2,73.977,73.977,0,0,0-85.494,65.42C197.4,129.136,75.17,137.971,25.837,195.46ZM275.58,250.815a297.706,297.706,0,0,0-3.162,47.618l-36.493-21.069A297.1,297.1,0,0,0,275.58,250.815Zm-61.8,38.155,59.662,34.446a364.311,364.311,0,0,0,7.754,53.263L163.775,308.887A363.89,363.89,0,0,0,213.778,288.97ZM240.52,433.693,134.736,372.618a334.844,334.844,0,0,1,10.807-49.878l132.766,76.652A334.276,334.276,0,0,1,240.52,433.693Zm-87.75,29.834c-14.353-8.287-21.554-33.106-20.111-67.729l88.829,51.286C192.222,465.642,167.127,471.816,152.77,463.527Zm275.693-31.108c-6.585,18.733-18.893,31-35.6,35.469-15.5,4.155-31.227.556-45.468-10.41-37.438-28.814-50.478-93.609-53.245-141-2.512-43.223,2.7-80.929,13.947-100.859l.024-.043c.169-.284.336-.573.5-.861l.024-.043c3.96-6.709,8.38-10.76,13.154-12.039,4.855-1.3,10.99.151,17.9,4.141a77.526,77.526,0,0,1,12.774,9.514s0,0,0,.005c28.971,26.012,60.9,83.269,74.271,133.178C435.483,382.069,436.078,410.755,428.463,432.419ZM359.8,104.95a52.839,52.839,0,0,1,1.106,90.836c-15.962-12.647-30.934-17.222-44.574-13.558-.468.125-.928.269-1.388.414-.1-.468-.208-.935-.33-1.4-3.648-13.65-15.1-24.327-34.03-31.829A52.834,52.834,0,0,1,359.8,104.95Zm-92.756,62.014a77.242,77.242,0,0,1,14.624,6.3c6.911,3.99,11.24,8.581,12.54,13.443,1.277,4.768-.02,10.622-3.849,17.4l-.027.046c-.168.284-.335.574-.5.862l-.025.042c-11.637,19.7-41.685,43.072-80.372,62.508C167.172,288.785,104.47,310.008,60.7,291.951c-16.621-6.852-27.6-18.67-31.753-34.173-4.475-16.7-.007-33.492,12.924-48.561C86.81,156.85,213.416,149.464,267.039,166.964Z" fill="#fff"/><path d="M136.6,207.351c31.847-6.921,69.626-8.625,98.6-4.458a10.563,10.563,0,1,0,3.011-20.91c-31.3-4.5-71.949-2.692-106.092,4.723a10.563,10.563,0,1,0,4.484,20.645Z" fill="#fff"/><path d="M336.751,261.562c18.339,22.913,35.951,56.584,45.964,87.877A10.562,10.562,0,0,0,402.834,343c-10.746-33.59-29.748-69.854-49.586-94.643a10.564,10.564,0,0,0-16.5,13.2Z" fill="#fff"/></g></svg>